<?xml version="1.0" encoding="utf-8"?>
<!-- Generator: Adobe Illustrator 16.0.4, SVG Export Plug-In . SVG Version: 6.00 Build 0)  -->
<!DOCTYPE svg PUBLIC "-//W3C//DTD SVG 1.1//EN" "http://www.w3.org/Graphics/SVG/1.1/DTD/svg11.dtd">
<svg version="1.1" xmlns="http://www.w3.org/2000/svg" xmlns:xlink="http://www.w3.org/1999/xlink" x="0px" y="0px"
	 width="446.978px" height="439.479px" viewBox="0 0 446.978 439.479" enable-background="new 0 0 446.978 439.479"
	 xml:space="preserve">
<g id="Layer_2">
	<path fill="#FFFFFF" d="M340.096,232.73c-0.478-15.285-4.955-20.42-6.03-20.659c-1.074-0.239-9.314-10.21-10.448-12.001
		c-1.135-1.791-7.683-4.956-7.683-4.956l0.319-0.836c0.238-0.956,2.029-6.329,2.944-6.409c0.916-0.08,8.678-3.264,8.678-3.264
		c2.627-3.821,1.114-9.235,1.114-9.235c-2.189-3.065-10.588-5.493-15.962-4.617s-2.905,15.285-2.905,15.285
		c-21.972-42.034-37.813-44.581-37.813-44.581c-4.856-1.194-31.287-2.627-31.287-2.627l-2.866,0.955
		c-2.627-0.478-26.589-1.194-26.589-1.194s-0.399-12.578-0.717-12.738c-0.318-0.16-0.558,0-0.558,0l-0.716,12.817
		c-16.241,0.478-26.669,1.751-26.669,1.751l-1.433-1.114c-9.871-0.478-33.436,3.185-33.436,3.185
		c-19.265,6.05-33.754,45.218-33.754,45.218s-0.875-11.145-1.512-13.533c-0.637-2.389-4.299-2.309-4.299-2.309
		c-6.607-0.318-13.693,4.458-14.012,5.015c-0.318,0.558,1.035,7.404,1.354,8.438c0.318,1.035,10.747,4.697,10.747,4.697
		c-0.079,1.433,1.911,5.971,1.911,5.971c-8.08,4.458-8.16,6.409-8.399,7.304c-0.239,0.896-6.449,8.956-8.777,10.33
		c-2.328,1.373-3.443,4.339-3.443,4.339c-5.891,16.399-2.627,56.283-2.388,58.831S86.66,292,86.262,293.193
		c-0.398,1.194,0.398,2.707,0.398,3.662s1.911,3.98,1.911,3.98s1.114,4.696,1.831,8.757c0.717,4.06,6.051,5.254,7.643,5.652
		c1.592,0.398,12.897,0.557,15.205-0.796c2.309-1.353,2.07-6.13,2.07-6.13c16.559,4.776,68.941,1.91,100.467,4.06
		s95.591-5.313,95.591-5.313c0.119,0.656-0.358,5.194,5.374,6.03c5.731,0.836,13.255-0.418,14.031-0.418
		c0.775,0,3.94-1.433,5.075-3.582c1.134-2.149,2.209-9.613,2.209-9.613c0-0.776,1.731-3.284,1.97-5.553
		c0.239-2.269-0.896-6.866-0.896-6.866C342.007,270.942,340.574,248.015,340.096,232.73z M143.74,149.18
		c0,0,33.595-11.145,131.993-3.502c0,0,19.104,10.508,28.978,41.715c0,0-178.405,4.14-185.012,1.751
		C119.698,189.144,128.296,159.051,143.74,149.18z M215.756,245.328h4.986c0,0-1.762,3.284-6.509,3.194
		C214.233,248.522,216.354,247.209,215.756,245.328z M214.055,242.791c-0.537-0.508-0.179-2.776-0.179-2.776
		c5.015,0.089,6.598,2.776,6.598,2.776H214.055z M213.159,248.524c0,0-5.553,0.506-7.225-3.017v-0.18h6.68
		c0,0,0.545,0.746,0.545,1.225C213.159,247.03,213.01,248.198,213.159,248.524z M211.248,242.791h-4.985c0,0,2.508-2.836,6.15-2.508
		C212.413,240.283,210.741,241.746,211.248,242.791z M103.298,219.117c0.836-0.239,4.538,0,4.538,0s25.793,13.255,30.928,15.763
		s13.375,10.747,13.375,10.747c-0.956,0-26.032-1.911-28.779-2.389s-7.643,0.836-7.643,0.836
		c-10.389,4.061-14.449-1.194-14.449-1.194C89.924,230.461,102.462,219.355,103.298,219.117z M121.807,297.691
		c0,0-6.687-0.717-17.076-2.985c-10.389-2.269-10.27-10.194-10.27-10.194s-1.911-14.405-2.627-19.898s2.627-3.224,2.627-3.224
		s3.702,1.672,5.732,2.627c2.03,0.955,5.135,4.538,5.135,4.538l17.554,25.555C125.987,298.629,121.807,297.691,121.807,297.691z
		 M286.878,290.566c-0.478,1.434-2.865,6.211-6.051,7.324c-3.185,1.114-48.066,3.502-54.683,3.343
		c-6.616-0.158-67.279,0.319-71.101-0.796c-3.821-1.114-10.508-8.917-10.667-11.146c-0.159-2.229-1.114-5.413,0.956-8.598
		c2.069-3.184,8.299-9.99,8.299-9.99s1.254-1.801,11.762-1.792c0,0,84.864,0.16,92.824-0.795c7.961-0.956,14.807,0.159,17.515,3.025
		C278.439,274.008,287.355,289.134,286.878,290.566z M278.359,244.24c-2.627-0.882-2.627-0.882-2.627-0.882s5.254-5.136,7.164-6.329
		c1.911-1.194,32.003-17.077,32.003-17.077s5.732-2.269,6.927-1.433c1.193,0.835,8.717,8.717,6.567,16.001
		s-4.538,11.702-17.315,8.837c0,0-5.492-1.672-7.642-1.314C301.286,242.402,280.986,245.123,278.359,244.24z M334.245,265.091
		c-1.075,8.12-2.985,20.897-2.985,20.897s-0.12,3.821-6.927,6.21c-6.806,2.389-16.598,3.344-16.598,3.344s-5.852,2.149-3.344-3.344
		l17.314-26.749c0,0,8.359-6.807,10.628-7.045C332.334,258.404,335.319,256.971,334.245,265.091z"/>
	<rect x="62.614" y="70.655" fill="none" stroke="#FFFFFF" stroke-width="7" stroke-miterlimit="10" width="300" height="300"/>
</g>
<g id="Layer_3">
</g>
</svg>
