<?xml version="1.0" encoding="utf-8"?>
<!-- Generator: Adobe Illustrator 16.0.4, SVG Export Plug-In . SVG Version: 6.00 Build 0)  -->
<!DOCTYPE svg PUBLIC "-//W3C//DTD SVG 1.1//EN" "http://www.w3.org/Graphics/SVG/1.1/DTD/svg11.dtd">
<svg version="1.1" xmlns="http://www.w3.org/2000/svg" xmlns:xlink="http://www.w3.org/1999/xlink" x="0px" y="0px" width="438px"
	 height="449px" viewBox="0 0 438 449" enable-background="new 0 0 438 449" xml:space="preserve">
<g id="Layer_3">
</g>
<g id="Layer_2">
	<rect x="78.218" y="71.528" fill="none" stroke="#FFFFFF" stroke-width="7" stroke-miterlimit="10" width="300" height="300"/>
	<path fill="#FFFFFF" d="M348.992,168.444c-0.141-0.563-0.282-8.592-11.973-10.987c-11.691-2.395-12.959,1.268-13.382,2.113
		c-0.422,0.845,0,12.818,0,12.818c-4.93-16.621-20.564-36.482-26.34-42.257c-5.775-5.775-14.931-3.663-14.931-3.663
		s-25.495-3.099-54.511-2.958c-29.017,0.141-57.61,2.395-57.61,2.395c-2.817-1.408-7.747,0-7.747,0
		c-18.452,5.916-32.115,47.046-32.115,47.046s0-12.959,0-13.804s-1.268-2.676-2.395-3.24c-1.126-0.563-10.846,0.563-10.846,0.563
		c-8.17,1.268-9.014,6.057-9.719,7.184c-0.704,1.127-0.986,5.494-1.127,6.621c-0.141,1.127,15.072,4.226,15.072,4.226l6.62,3.521
		c-5.634,9.156-6.62,21.974-6.62,21.974s0,3.286-3.192,9.296c-3.192,6.009-6.949,13.522-6.949,13.522
		c-7.888,28.358-0.422,65.78-0.422,65.78c-0.705,15.071,3.24,24.65,5.916,28.312s12.677,2.395,16.48,2.562
		c3.803,0.167,5.211-1.153,5.211-1.153c4.93-5.916,5.071-20.002,5.071-20.002l7.747,0.845c4.226,0.282,11.973,0,11.973,0
		l1.972-2.395c8.451,2.536,57.047,1.409,71.977,1.831c14.931,0.423,52.68-2.113,52.68-2.113l2.677,2.536
		c2.112,0.282,11.034,0.046,11.034,0.046c0.563,15.587,5.07,15.964,5.634,17.842c0.563,1.877,4.696,2.441,4.696,2.441
		c15.4,0.75,21.033-2.254,21.033-2.254c9.767-4.881,9.015-30.612,9.015-30.612c2.817-7.888,3.804-35.073,2.113-49.723
		c-1.69-14.649-11.55-31.129-11.55-31.129c0-4.367-8.593-28.078-8.593-28.078c0.61-1.502,20.518-4.085,23.101-5.635
		C351.575,170.369,348.992,168.444,348.992,168.444z M137.567,168.585c6.198-18.734,21.974-38.454,21.974-38.454
		c54.652-4.085,134.235,0,134.235,0c2.958,1.972,16.903,25.636,21.692,37.608c4.789,11.973-4.227,11.41-12.114,12.114
		s-145.927,0.282-145.927,0.282C132.074,180.135,137.567,168.585,137.567,168.585z M150.667,292.257
		c-4.789,0-28.171,0.141-31.27-5.775c0,0-1.832-15.212-1.409-18.593c0.422-3.38,2.535-3.24,4.085-2.958
		c1.549,0.282,29.58,5.634,34.51,21.551C156.583,286.482,155.456,292.257,150.667,292.257z M156.301,211.405
		c-2.676,3.521-6.479,11.409-6.479,11.409s-26.199-0.563-28.594-6.057c0,0-2.536-20.001,6.479-29.861c0,0,1.69-1.409,6.479-1.268
		l24.086,15.917C158.273,201.545,158.978,207.884,156.301,211.405z M166.583,293.243c0,0,7.958-15.776,8.452-16.339
		c0.493-0.563,0.563-2.113,4.366-1.972c3.804,0.141,91.463,0.733,96.815-0.009c0,0,3.944-1.118,6.761,6.207
		c0,0,5.729,11.456,6.291,12.489C289.832,294.651,179.965,296.624,166.583,293.243z M226.519,222.04
		c0,0.458,0.423,0.774,0.845,1.584c0.423,0.81,0.247,3.099,0.247,3.099c-6.021-0.035-8.769-4.684-8.769-4.684H226.519z
		 M219.124,218.061c0,0,1.514-4.014,8.486-4.19c0,0-0.986,1.761-1.409,2.219c-0.422,0.458-0.704,1.479-0.704,1.972H219.124z
		 M279.55,232.393c0,0,4.789,0.563,4.789,2.535c0,1.972-1.549,6.902-3.943,8.029s-71.133,2.676-104.093,0
		c0,0-3.944-1.549-5.071-8.029c0,0,0.563-2.395,3.521-2.535C177.711,232.252,237.293,235.915,279.55,232.393z M229.089,218.061
		c0,0-0.105-0.669-0.422-1.303c-0.317-0.634,0-2.888,0-2.888c7.253,0.282,8.238,4.19,8.238,4.19H229.089z M237.363,222.462
		c0,0-2.535,3.944-8.696,4.261c0,0,1.688-1.831,1.9-2.342c0.211-0.511,0.281-1.919,0.281-1.919H237.363z M239.594,205.63
		c-5.07-1.315-8.169-1.69-11.737-1.784c-3.569-0.093-13.522,1.784-13.522,1.784c-9.766-0.095-54.465-2.63-54.465-2.63h135.786
		C288.987,204.127,239.594,205.63,239.594,205.63z M337.16,268.546c0.094,3.568-1.69,17.936-1.69,17.936
		c0,3.849-26.669,6.291-31.458,5.54s-4.789-5.54-4.789-5.54c5.821-16.246,32.679-20.096,34.182-20.565
		C334.907,265.447,337.066,264.977,337.16,268.546z M328.709,190.277c5.212,11.832,4.93,25.213,4.93,25.213
		c-0.423,4.93-16.198,7.184-22.114,7.606c-5.916,0.423-6.339-1.568-6.339-1.568s-5.211-9.7-6.62-11.532
		c-1.408-1.831-1.831-7.324-1.831-7.324l24.087-16.339c2.676-0.423,4.226,0,4.226,0
		C326.314,186.896,328.709,190.277,328.709,190.277z"/>
</g>
</svg>
