<?xml version="1.0" encoding="utf-8"?>
<!-- Generator: Adobe Illustrator 16.0.4, SVG Export Plug-In . SVG Version: 6.00 Build 0)  -->
<!DOCTYPE svg PUBLIC "-//W3C//DTD SVG 1.1//EN" "http://www.w3.org/Graphics/SVG/1.1/DTD/svg11.dtd">
<svg version="1.1" xmlns="http://www.w3.org/2000/svg" xmlns:xlink="http://www.w3.org/1999/xlink" x="0px" y="0px"
	 width="466.477px" height="527.974px" viewBox="0 0 466.477 527.974" enable-background="new 0 0 466.477 527.974"
	 xml:space="preserve">
<g id="Layer_1">
</g>
<g id="Layer_2">
	<path fill="#FFFFFF" d="M337.935,200.354c10.6-0.621,10.504-6.112,10.504-6.112c1.099-2.196,0-4.44,0-4.44
		c-0.43-1.146-1.002-4.87-5.873-5.873c-4.87-1.003-16.187,0-16.187,0c-2.722,0.859-2.435,10.887-2.435,10.887
		c-1.862,0.716-3.868,0.144-3.868,0.144c-20.627-39.393-31.084-41.255-31.084-41.255c-4.728-0.716-33.52-3.295-63.013-3.151
		c-29.494,0.144-62.256,3.223-62.256,3.223c-14.826,5.587-31.944,41.899-31.944,41.899l-2.937,0.071v-0.645
		c0.43-10.958-2.148-10.814-2.148-10.814c-1.791-0.502-10.672-0.502-14.683,0c-4.011,0.501-5.515,5.944-5.515,5.944
		c-1.719,1.576,0.143,4.44,0.143,4.44c0.573,3.868,7.878,6.303,15.041,6.303c7.162,0,8.021,1.003,8.021,1.003
		c-2.578,1.862-8.595,8.738-9.597,11.316c-1.003,2.579-11.03,15.9-11.03,15.9c-6.733,19.338-1.719,73.628-1.719,73.628l1.433,1.862
		c0,0,1.002,9.454,1.719,12.319s0.859,6.732,5.014,8.021s16.903,1.003,22.346,0s5.586-14.611,5.586-14.611l-0.382-0.716
		l18.288-0.144c2.292-1.719,14.754-1.432,14.754-1.432s85.757-0.525,98.649-0.621c12.892-0.096,17.094,2.005,17.094,2.005
		l17.857-0.095c0,0,0,2.101,0.382,5.348c0.382,3.246,1.241,6.971,4.488,9.072c3.246,2.102,14.802,2.006,20.245,1.527
		c5.443-0.478,4.584-2.196,6.494-5.538c1.91-3.343,2.388-14.516,2.388-14.516l1.433-2.388c3.056-9.645,1.504-45.791,1.002-57.895
		c-0.501-12.104-3.652-18.049-3.652-18.049c-0.859-0.788-7.95-10.171-9.096-12.248c-1.146-2.077-7.879-10.887-9.168-12.032
		c-1.289-1.146-0.573-1.576-0.43-1.767C323.945,200.735,337.935,200.354,337.935,200.354z M160.071,158.431
		c57.298-6.303,132.359,0,132.359,0c12.605,11.113,22.633,37.912,22.633,37.912c-57.298-3.342-176.86,0-176.86,0
		C142.404,175.238,160.071,158.431,160.071,158.431z M227.564,243.518c0,0-0.572-0.62-0.645-0.979
		c-0.071-0.358-0.048-1.6,0.191-1.886c0,0,3.629-0.311,6.351,2.864H227.564z M233.222,246.491c-1.838,3.021-6.111,3.067-6.111,3.067
		c0-0.144,0.382-1.313,0.812-1.72s0.621-1.348,0.621-1.348H233.222z M225.98,238.743c-6.574-0.095-8.323,3.819-9.66,4.966
		c-1.337,1.146-2.292,0.955-2.292,0.955s-22.634-0.764-28.65-0.955c-6.017-0.191-11.937-6.303-11.937-6.303l-9.167-1.191
		l-0.86-0.814l-0.382-0.764c2.005,0.382,12.319,1.578,12.319,1.578c8.212,1.195,74.87,0.714,82.892,0.714
		c8.021,0,32.278-2.292,32.278-2.292l-0.479,1.241l-10.887,1.624c0,0-4.679,3.151-6.779,5.061
		c-2.102,1.911-29.317,1.624-31.896,1.72c-2.579,0.096-3.438-0.191-4.107-0.765C235.706,242.945,232.554,238.839,225.98,238.743z
		 M224.485,243.518h-4.942c0,0,1.367-2.793,6.438-2.864C225.98,240.653,224.222,242.085,224.485,243.518z M225.511,246.491
		c0.047,0.37,0.74,1.205,0.836,1.729c0.096,0.526-0.367,1.457-0.367,1.457c-5.476-0.119-6.294-3.187-6.294-3.187H225.511z
		 M124.929,290.98c-0.859,1.719-3.629,2.578-3.629,2.578s-3.438-0.286-5.921-0.382c-2.483-0.096-3.534-4.011-3.534-4.011v-29.892
		c0-0.477-0.478-2.769,1.528-2.482c2.006,0.287,3.343,1.719,3.604,2.482c0.261,0.765,4.705,16.713,4.896,17.668
		s2.483,4.87,3.056,5.825C125.501,283.722,125.788,289.262,124.929,290.98z M146.224,250.489c-0.382,0.287-4.583-0.382-4.583-0.382
		c-22.633-2.483-24.065-6.59-24.065-6.59c-1.528-4.774,0.287-17.38,0.859-19.577c0.573-2.195,1.624-2.482,2.579-1.623
		s6.589,2.961,6.589,2.961c-1.433,2.578,1.336,3.819,1.336,3.819c4.68,3.057,32.183,6.972,32.183,6.972s5.252,3.82,6.685,5.729
		c1.432,1.91,0.382,1.91-1.242,1.814c-1.624-0.095-17.189-1.623-20.532-2.196s-4.488-0.096-4.488-0.096
		c-0.668,1.051,3.342,6.303,3.82,7.067C145.842,249.152,146.606,250.203,146.224,250.489z M300.882,291.792
		c-1.29,1.289-14.468,3.867-14.468,3.867c-9.168,1.289-120.041,0.382-121.568,0.286s-4.775-0.955-11.555-3.819
		c-6.78-2.865-3.056-8.69-3.056-8.69s11.746-18.24,15.279-22.919c3.533-4.68,9.454-5.253,9.454-5.253s95.402,0,99.986,0
		s5.157,0.573,8.861,1.862s17.926,22.776,19.931,27.503C305.752,289.356,302.171,290.503,300.882,291.792z M339.487,256.052
		c0,0,1.302,0.575,1.289,1.647l-0.358,30.153c0,0,0.144,4.512-2.865,4.87c0,0-5.013,0.286-6.374,0
		c-1.36-0.286-3.223-1.146-3.295-4.799c-0.071-3.652-0.143-5.873,0.573-7.162s3.295-3.151,3.438-4.226
		c0.143-1.074,4.226-14.611,4.583-18.121C336.478,258.415,336.407,256.267,339.487,256.052z M325.449,226.974
		c0.716-0.86-0.287-1.791-0.287-1.791s1.576-0.717,5.086-2.363c3.509-1.647,3.581-1.433,4.655,1.002
		c1.074,2.436,1.218,15.829,1.146,17.619c-0.071,1.791-2.005,3.582-3.223,4.154c-1.218,0.573-21.2,3.939-23.707,4.154
		s-2.077-0.716-2.077-0.716s2.221-2.865,4.011-5.443c1.791-2.579-1.647-2.722-1.647-2.722s-20.771,2.649-23.778,3.008
		c-3.009,0.358-1.361-1.433-1.361-1.433l7.162-6.589c0,0,18.407-3.51,23.708-4.584C320.435,230.196,324.732,227.833,325.449,226.974
		z"/>
	<rect x="77.245" y="88.217" fill="none" stroke="#FFFFFF" stroke-width="7" stroke-miterlimit="10" width="300" height="300"/>
</g>
<g id="Layer_3">
</g>
</svg>
