<?xml version="1.0" encoding="utf-8"?>
<!-- Generator: Adobe Illustrator 16.0.4, SVG Export Plug-In . SVG Version: 6.00 Build 0)  -->
<!DOCTYPE svg PUBLIC "-//W3C//DTD SVG 1.1//EN" "http://www.w3.org/Graphics/SVG/1.1/DTD/svg11.dtd">
<svg version="1.1" xmlns="http://www.w3.org/2000/svg" xmlns:xlink="http://www.w3.org/1999/xlink" x="0px" y="0px"
	 width="488.976px" height="524.974px" viewBox="0 0 488.976 524.974" enable-background="new 0 0 488.976 524.974"
	 xml:space="preserve">
<g id="Layer_2">
	<path fill="#FFFFFF" d="M359.893,207.614c-1.779-5.756-6.123-6.175-6.123-6.175s-9.629-0.523-12.507-0.523
		c-2.879,0-4.344,0.786-5.129,2.146s-1.256,5.39-1.256,7.85s-1.466,2.355-1.466,2.355c-2.669,0.471-3.035-1.099-3.035-1.099
		l-13.606-41.448c-3.245-5.861-10.048-6.07-10.048-6.07c-9.002-1.675-72.691-2.617-72.691-2.617l-0.667-15.15
		c-0.393-0.471-0.864,0-0.864,0l-0.353,15.15c0,0-67.667,2.591-67.903,2.591c-0.236,0-6.124-0.628-10.284,3.533
		c-4.16,4.16-15.333,45.059-15.647,45.792c-0.314,0.732-3.507,0.366-3.972,0c-0.465-0.367-0.163-6.803-0.005-8.949
		c0.157-2.146-3.087-2.931-3.087-2.931s-10.415-0.732-13.555,0s-7.222,3.507-5.966,10.676s17.061,6.071,17.061,6.071
		c9.033,0.512,7.956,3.297,7.903,3.768c-0.053,0.471-5.756,6.176-8.896,11.828c-3.14,5.652-3.036,18.474-3.716,19.677
		c-0.68,1.204-3.402,2.303-5.286,13.921c-1.884,11.618-1.256,40.348-1.021,45.059c0.235,4.711,2.198,16.879,2.198,16.879
		l1.099,24.178c0.864,4.945,5.26,5.887,5.26,5.887s12.167,0.158,18.526,0c6.358-0.156,6.437-7.064,6.437-7.064l0.157-15.857
		l14.915,0.156c1.884-2.041,6.438-1.727,6.438-1.727c46,2.041,129.996-0.234,129.996-0.234c2.276,0.078,4.161,1.568,4.161,1.568
		h11.068v4.475c0,0,0.21,8.896,0.733,13.084c0.522,4.186,5.757,4.92,5.757,4.92h19.362c2.513,0,4.083-3.035,5.549-6.385
		s1.778-22.713,1.778-22.713l0.314-2.094c0.837-2.303,1.884-19.572,1.884-19.572s-0.577-31.087-0.577-32.552
		c0-1.465-0.731-6.175-2.197-12.874c-1.466-6.699-5.391-12.089-5.391-12.665c0-0.575-1.622-12.508-1.622-12.508
		c-1.884-9.315-9.995-15.072-10.729-16.066c-0.731-0.995-0.262-2.042-0.262-2.042c0.472-1.623,14.393-1.779,21.039-2.773
		c6.646-0.995,6.227-5.601,6.227-5.601C361.358,209.759,359.893,207.614,359.893,207.614z M134.728,292.028
		c0,0-0.079,7.929-0.079,9.028c0,1.099-1.02,2.512-1.491,2.746c-0.471,0.236-0.864,1.414-0.786,2.199
		c0.079,0.785,2.669,3.768,2.669,3.768s0.393,5.416-0.393,8.871c-0.785,3.453-5.495,5.652-5.495,5.652
		c-0.942-0.551-1.099-3.611-1.099-3.611v-26.141c0-5.025,3.769-4.867,3.769-4.867c5.417,0.471,17.113,1.884,17.113,1.884
		L134.728,292.028z M166.521,248.853v17.663c-36.477-3.009-38.23-12.639-38.23-12.639s0-9.027,0-11.225
		c0-2.198,1.649-2.512,3.533-1.648c1.883,0.863,18.918,3.846,27.004,3.925S166.521,248.853,166.521,248.853z M297.303,328.767
		c-5.024,0.104-115.343,1.465-123.403,0.521c0,0-3.035-0.207-3.872-3.348v-18.004c0,0,0.208-4.186,4.814-4.291
		c4.606-0.104,119.948-0.627,119.948-0.627s6.908-0.734,7.117,5.441c0.21,6.176,0,15.49,0,15.49S302.326,328.662,297.303,328.767z
		 M238.271,270.388h5.05c0,0-1.386,4.238-6.75,4.029C236.57,274.417,238.558,272.403,238.271,270.388z M236.308,263.925
		c0,0,5.862-0.079,6.725,3.454h-6.384C236.648,267.379,235.784,266.148,236.308,263.925z M236.072,261.57
		c-9.185-0.079-11.068,4.945-11.068,4.945l-46.943-0.392l-2.434-2.277c0.667-1.217,1.204-3.323,6.019-3.611
		c4.814-0.288,111.025-0.393,111.89,0c0.862,0.393,2.903,3.14,2.903,3.14c-0.234,0.628-2.434,2.512-2.434,2.512
		c-3.14,0.627-47.413,0.627-47.413,0.627S245.257,261.648,236.072,261.57z M233.508,267.379h-4.84c0,0,0.784-3.349,6.777-3.454
		C235.444,263.925,233.351,265.6,233.508,267.379z M234.686,270.388c0.026,0.393,0.89,1.125,1.073,1.701
		c0.183,0.576-0.314,2.617-0.314,2.617c-6.149,0-7.196-4.318-7.196-4.318H234.686z M145.222,218.447l13.188-47.1
		c0,0,91.897-3.769,152.186-0.838l13.816,47.938C324.412,218.447,216.186,216.772,145.222,218.447z M343.723,320.548
		c0,0-0.313,2.932-1.885,2.564c-1.569-0.365-5.181-4.029-5.232-5.076c-0.052-1.045,0.052-9.576,0.052-9.576s2.408-1.904,2.565-2.471
		s0.365-1.926,0.104-2.24c-0.261-0.314-2.354-2.564-2.354-2.826s-0.053-9.995-0.053-9.995s-12.141-0.26-13.867-0.052
		c0,0,10.257-1.884,16.536-2.041c0,0,3.664,0.314,3.769,4.449C343.461,297.417,343.723,320.548,343.723,320.548z M340.321,239.904
		c0,0,1.831-0.523,1.936,2.146s0.838,12.769-3.034,15.072c-3.873,2.303-24.702,8.426-34.279,8.739c0,0-0.471-17.217,0-18.264
		c0.471-1.046,3.402-2.564,5.443-2.773C312.427,244.614,336.082,242.52,340.321,239.904z"/>
</g>
<g id="Layer_3">
	<rect x="86.019" y="103.375" fill="none" stroke="#FFFFFF" stroke-width="7" stroke-miterlimit="10" width="300" height="300"/>
</g>
</svg>
