<?xml version="1.0" encoding="utf-8"?>
<!-- Generator: Adobe Illustrator 16.0.4, SVG Export Plug-In . SVG Version: 6.00 Build 0)  -->
<!DOCTYPE svg PUBLIC "-//W3C//DTD SVG 1.1//EN" "http://www.w3.org/Graphics/SVG/1.1/DTD/svg11.dtd">
<svg version="1.1" xmlns="http://www.w3.org/2000/svg" xmlns:xlink="http://www.w3.org/1999/xlink" x="0px" y="0px" width="467px"
	 height="436px" viewBox="0 0 467 436" enable-background="new 0 0 467 436" xml:space="preserve">
<g id="Layer_3">
</g>
<g id="Layer_2">
	<rect x="75.218" y="99.062" fill="none" stroke="#FFFFFF" stroke-width="7" stroke-miterlimit="10" width="300" height="300"/>
	<path fill="#FFFFFF" d="M321.893,203.396c0.529-0.235,10.587-0.177,18.526-1.117c7.939-0.941,7.645-6.116,7.645-6.116
		c1.354-1.646,0-3.353,0-3.353c-0.176-3.117-3.47-6.234-4.939-6.939c-1.471-0.706-12.115-0.765-16.35-0.706
		c-4.234,0.059-4.705,6.411-4.94,9.704c-0.235,3.293-2.176,3.136-2.176,3.136c-3.764,0.02-3.823-2.431-3.823-2.431
		c-3.058-11.409-19.29-40.58-24.348-44.461c-5.059-3.882-9.586-2.211-9.586-2.211c-48.52-6.74-116.446,0.124-116.446,0.124
		c-2.911-0.441-5.646,0.441-5.646,0.441c-10.145,5.469-28.229,47.99-28.229,47.99c-2.559,1.235-4.676,0-4.676,0
		c0.529-11.115-2.117-11.909-2.117-11.909s-10.762-0.529-16.32,0.441c-5.558,0.971-5.999,8.469-5.999,8.469
		c1.294,7.939,8.175,7.822,9.174,8.233c1,0.412,14.115,1.236,15.173,1.236s3.293,1.529,2.823,2.235
		c-0.471,0.706-5.881,6.587-7.998,9.174c-2.117,2.588-2.824,6.587-3.411,8.233c-0.589,1.646-9.41,13.997-9.763,14.35
		s-3.529,0.353-5.999,21.289c-2.47,20.936,2.411,57.693,2.411,57.693c-0.235,3.117,1.234,20.76,1.646,23.406
		s3.646,8.939,6.175,10.409s15.82,1.471,16.467,1.471c0.646,0,6.587-0.235,8.233-3.588s1.146-17.452,1.146-17.452l10.586,0.441
		l3.44-0.75c47.048,5.41,145.499-0.234,145.499-0.234l2.705,1.059l10.321-1.089l0.266,4.205c-0.059,9.292,2.528,11.645,4.352,14.056
		c1.822,2.412,6.998,1.529,14.291,1.588c7.292,0.059,9.468-1.588,9.468-1.588c1.765-1.529,3.646-7.174,3.646-7.174
		c2.94-8.469,2.47-29.994,2.47-29.994c4.47-16.703,0.588-60.81,0.588-60.81s-1.293-9.174-5.057-13.291
		c-3.764-4.117-10.409-14.291-10.409-14.291c0.118-4.47-10.351-16.409-11.116-17.703
		C318.834,204.277,321.363,203.631,321.893,203.396z M160.163,157.229c66.868-7.058,128.149,0,128.149,0
		c10.586,14.115,17.879,42.697,17.879,42.697c-50.812,3.881-164.024,0-164.024,0C143.754,185.105,160.163,157.229,160.163,157.229z
		 M222.326,237.506h-5.088c0,0,1.294-3.499,7.117-3.558C224.355,233.948,222.091,236.242,222.326,237.506z M223.562,240.182
		c0,0.235,0.617,0.382,0.999,1.588s0,2.505,0,2.505c-5.911,0.27-7.911-4.093-7.911-4.093H223.562z M276.255,257.266
		c7.587-0.176,8.998,7.058,8.998,7.058c1.131,2.796-3.528,2.999-3.528,2.999c-28.229,3-111.858,0-115.74,0s-2.117-2.646,0-6.53
		s6.881-3.53,6.881-3.53S268.669,257.443,276.255,257.266z M225.943,237.506c0,0-1.001-1.587-0.501-3.205
		c0,0,3.617-1.088,7.41,3.205H225.943z M233.294,240.182c0,0-1.206,4.264-7.852,4.087c0,0,1.559-1.2,1.911-2.041
		c0.354-0.841,0.501-2.046,0.501-2.046H233.294z M130.434,289.289c0,0-1.764,12.703-2.293,15.967s-6.352,2.206-10.057,0.882
		s-3.793-5.028-3.793-5.028s-1.059-11.557-1.147-14.644c-0.088-3.087,2.823-2.117,2.823-2.117l13.232,2.117
		C131.316,287.524,130.434,289.289,130.434,289.289z M146.753,251.621c-6.645-1.412-30.229-5.47-30.229-5.47
		s-1.235-1.705-1.764-4.764c-0.529-3.058-0.353-10.115,1.588-12.526c1.94-2.411,4.646-6.939,8.469-6.822
		c0,0,16.35,7.646,20.349,8.469c0,0,2.705,0.882,3.47,4.822s2.882,13.21,2.882,13.21S153.399,253.032,146.753,251.621z
		 M297.427,318.605c-37.463,2.823-140.028,0.117-144.615,0c-4.587-0.117-3.881-3.059-3.881-3.059s1.293-11.526,1.646-15.055
		c0.353-3.529,3.529-3.058,3.529-3.058c7.704,2.234,127.737,0.353,136.44-0.021c8.704-0.374,8.116,3.902,8.116,3.902
		s1.177,9.292,1.647,13.526C300.78,319.076,297.427,318.605,297.427,318.605z M339.797,287.893c0,0-0.617,6.264-1.323,12.615
		c-0.705,6.352-7.321,6.704-10.674,7.146c-3.353,0.44-3.264-3.088-3.264-3.088l-2.029-16.673c-0.081-0.664,9.792-2.382,13.497-3
		S339.797,287.893,339.797,287.893z M324.068,221.979c0.794-0.706,3.793-0.706,9.969,8.557c0,0,2.028,3.088,1.588,5.558
		c-0.441,2.47-1.677,8.822-1.677,8.822s-2.646,1.5-4.146,2.029c-1.5,0.529-27.612,4.852-28.847,4.852
		c-1.235,0-3.265,0.177-3.529-2.734l3.882-15.791c0,0,0.794-2.558,4.587-3.793C309.689,228.243,323.274,222.686,324.068,221.979z"/>
</g>
</svg>
